<mxfile host="app.diagrams.net" agent="Mozilla/5.0 (Windows NT 10.0; Win64; x64) AppleWebKit/537.36 (KHTML, like Gecko) Chrome/135.0.0.0 Safari/537.36" version="26.2.9">
  <diagram name="Page-1" id="bkodJpFq979zH950Eyyl">
    <mxGraphModel dx="1313" dy="2022" grid="1" gridSize="10" guides="1" tooltips="1" connect="1" arrows="1" fold="1" page="1" pageScale="1" pageWidth="827" pageHeight="1169" math="0" shadow="0">
      <root>
        <mxCell id="0" />
        <mxCell id="1" parent="0" />
        <mxCell id="TeH9KYR89CR4eXnHReJw-1" value="" style="rounded=0;whiteSpace=wrap;html=1;fillColor=light-dark(#6A00FF,#330066);fontColor=#ffffff;strokeColor=#3700CC;movable=0;resizable=0;rotatable=0;deletable=0;editable=0;locked=1;connectable=0;" vertex="1" parent="1">
          <mxGeometry x="30" y="-110" width="1110" height="530" as="geometry" />
        </mxCell>
        <mxCell id="TeH9KYR89CR4eXnHReJw-2" value="" style="points=[];aspect=fixed;html=1;align=center;shadow=0;dashed=0;fillColor=#FF6A00;strokeColor=none;shape=mxgraph.alibaba_cloud.dns_domain_name_system;" vertex="1" parent="1">
          <mxGeometry x="60" y="-90" width="55.800000000000004" height="54.900000000000006" as="geometry" />
        </mxCell>
        <mxCell id="TeH9KYR89CR4eXnHReJw-19" value="" style="swimlane;shape=rect;strokeColor=#EEEEEE;fillColor=#ffffff;fontColor=#000000;fontStyle=0;childLayout=stackLayout;horizontal=1;startSize=0;horizontalStack=0;resizeParent=1;resizeParentMax=0;resizeLast=0;collapsible=0;marginBottom=0;whiteSpace=wrap;html=1;shadow=1;" vertex="1" parent="1">
          <mxGeometry x="30" width="270" height="210" as="geometry" />
        </mxCell>
        <mxCell id="TeH9KYR89CR4eXnHReJw-20" value="Home" style="text;strokeColor=none;align=left;verticalAlign=middle;spacing=16;overflow=visible;points=[[0,0.5],[1,0.5]];portConstraint=eastwest;rotatable=0;whiteSpace=wrap;html=1;fillColor=none;fontSize=15;fontColor=inherit;" vertex="1" parent="TeH9KYR89CR4eXnHReJw-19">
          <mxGeometry width="270" height="42" as="geometry" />
        </mxCell>
        <mxCell id="TeH9KYR89CR4eXnHReJw-21" value="My games" style="text;strokeColor=#666666;align=left;verticalAlign=middle;spacing=16;overflow=visible;points=[[0,0.5],[1,0.5]];portConstraint=eastwest;rotatable=0;whiteSpace=wrap;html=1;fillColor=#f5f5f5;fontSize=15;fontColor=#333333;" vertex="1" parent="TeH9KYR89CR4eXnHReJw-19">
          <mxGeometry y="42" width="270" height="42" as="geometry" />
        </mxCell>
        <mxCell id="TeH9KYR89CR4eXnHReJw-22" value="Collection" style="text;strokeColor=none;align=left;verticalAlign=middle;spacing=16;overflow=visible;points=[[0,0.5],[1,0.5]];portConstraint=eastwest;rotatable=0;whiteSpace=wrap;html=1;fillColor=none;fontSize=15;fontColor=inherit;" vertex="1" parent="TeH9KYR89CR4eXnHReJw-19">
          <mxGeometry y="84" width="270" height="42" as="geometry" />
        </mxCell>
        <mxCell id="TeH9KYR89CR4eXnHReJw-23" value="Reviews" style="text;strokeColor=none;align=left;verticalAlign=middle;spacing=16;overflow=visible;points=[[0,0.5],[1,0.5]];portConstraint=eastwest;rotatable=0;whiteSpace=wrap;html=1;fillColor=none;fontSize=15;fontColor=inherit;" vertex="1" parent="TeH9KYR89CR4eXnHReJw-19">
          <mxGeometry y="126" width="270" height="42" as="geometry" />
        </mxCell>
        <mxCell id="TeH9KYR89CR4eXnHReJw-24" value="List" style="text;strokeColor=none;align=left;verticalAlign=middle;spacing=16;overflow=visible;points=[[0,0.5],[1,0.5]];portConstraint=eastwest;rotatable=0;whiteSpace=wrap;html=1;fillColor=none;fontSize=15;fontColor=inherit;" vertex="1" parent="TeH9KYR89CR4eXnHReJw-19">
          <mxGeometry y="168" width="270" height="42" as="geometry" />
        </mxCell>
        <mxCell id="TeH9KYR89CR4eXnHReJw-30" value="" style="strokeColor=none;fillColor=#dddddd;movable=0;" vertex="1" parent="TeH9KYR89CR4eXnHReJw-19">
          <mxGeometry x="1" width="4" height="190" relative="1" as="geometry">
            <mxPoint x="-4" y="125" as="offset" />
          </mxGeometry>
        </mxCell>
        <mxCell id="TeH9KYR89CR4eXnHReJw-31" value="" style="points=[];aspect=fixed;html=1;align=center;shadow=0;dashed=0;fillColor=#FF6A00;strokeColor=none;shape=mxgraph.alibaba_cloud.eprofile;" vertex="1" parent="1">
          <mxGeometry x="1060" y="-90" width="50.099999999999994" height="43.199999999999996" as="geometry" />
        </mxCell>
        <mxCell id="TeH9KYR89CR4eXnHReJw-32" value="Search" style="strokeWidth=1;shadow=0;dashed=0;align=center;html=1;shape=mxgraph.mockup.forms.searchBox;strokeColor=#999999;mainText=;strokeColor2=#008cff;fontColor=#666666;fontSize=17;align=left;spacingLeft=3;whiteSpace=wrap;" vertex="1" parent="1">
          <mxGeometry x="200" y="-83.4" width="170" height="30" as="geometry" />
        </mxCell>
        <mxCell id="TeH9KYR89CR4eXnHReJw-33" value="Amazon GameLift" style="sketch=0;outlineConnect=0;fontColor=#232F3E;gradientColor=none;strokeColor=#ffffff;fillColor=#232F3E;dashed=0;verticalLabelPosition=middle;verticalAlign=bottom;align=center;html=1;whiteSpace=wrap;fontSize=10;fontStyle=1;spacing=3;shape=mxgraph.aws4.productIcon;prIcon=mxgraph.aws4.gamelift;" vertex="1" parent="1">
          <mxGeometry x="329" width="170" height="230" as="geometry" />
        </mxCell>
        <mxCell id="TeH9KYR89CR4eXnHReJw-34" value="Amazon GameLift" style="sketch=0;outlineConnect=0;fontColor=#232F3E;gradientColor=none;strokeColor=#ffffff;fillColor=#232F3E;dashed=0;verticalLabelPosition=middle;verticalAlign=bottom;align=center;html=1;whiteSpace=wrap;fontSize=10;fontStyle=1;spacing=3;shape=mxgraph.aws4.productIcon;prIcon=mxgraph.aws4.gamelift;" vertex="1" parent="1">
          <mxGeometry x="530" width="170" height="230" as="geometry" />
        </mxCell>
        <mxCell id="TeH9KYR89CR4eXnHReJw-35" value="Amazon GameLift" style="sketch=0;outlineConnect=0;fontColor=#232F3E;gradientColor=none;strokeColor=#ffffff;fillColor=#232F3E;dashed=0;verticalLabelPosition=middle;verticalAlign=bottom;align=center;html=1;whiteSpace=wrap;fontSize=10;fontStyle=1;spacing=3;shape=mxgraph.aws4.productIcon;prIcon=mxgraph.aws4.gamelift;" vertex="1" parent="1">
          <mxGeometry x="750" width="170" height="230" as="geometry" />
        </mxCell>
        <mxCell id="TeH9KYR89CR4eXnHReJw-36" value="Amazon GameLift" style="sketch=0;outlineConnect=0;fontColor=#232F3E;gradientColor=none;strokeColor=#ffffff;fillColor=#232F3E;dashed=0;verticalLabelPosition=middle;verticalAlign=bottom;align=center;html=1;whiteSpace=wrap;fontSize=10;fontStyle=1;spacing=3;shape=mxgraph.aws4.productIcon;prIcon=mxgraph.aws4.gamelift;" vertex="1" parent="1">
          <mxGeometry x="950" width="170" height="230" as="geometry" />
        </mxCell>
        <mxCell id="TeH9KYR89CR4eXnHReJw-37" value="Amazon GameLift" style="sketch=0;outlineConnect=0;fontColor=#232F3E;gradientColor=none;strokeColor=#ffffff;fillColor=#232F3E;dashed=0;verticalLabelPosition=middle;verticalAlign=bottom;align=center;html=1;whiteSpace=wrap;fontSize=10;fontStyle=1;spacing=3;shape=mxgraph.aws4.productIcon;prIcon=mxgraph.aws4.gamelift;" vertex="1" parent="1">
          <mxGeometry x="329" y="250" width="170" height="90" as="geometry" />
        </mxCell>
        <mxCell id="TeH9KYR89CR4eXnHReJw-38" value="Amazon GameLift" style="sketch=0;outlineConnect=0;fontColor=#232F3E;gradientColor=none;strokeColor=#ffffff;fillColor=#232F3E;dashed=0;verticalLabelPosition=middle;verticalAlign=bottom;align=center;html=1;whiteSpace=wrap;fontSize=10;fontStyle=1;spacing=3;shape=mxgraph.aws4.productIcon;prIcon=mxgraph.aws4.gamelift;" vertex="1" parent="1">
          <mxGeometry x="530" y="250" width="170" height="90" as="geometry" />
        </mxCell>
        <mxCell id="TeH9KYR89CR4eXnHReJw-39" value="Amazon GameLift" style="sketch=0;outlineConnect=0;fontColor=#232F3E;gradientColor=none;strokeColor=#ffffff;fillColor=#232F3E;dashed=0;verticalLabelPosition=middle;verticalAlign=bottom;align=center;html=1;whiteSpace=wrap;fontSize=10;fontStyle=1;spacing=3;shape=mxgraph.aws4.productIcon;prIcon=mxgraph.aws4.gamelift;" vertex="1" parent="1">
          <mxGeometry x="750" y="250" width="170" height="90" as="geometry" />
        </mxCell>
        <mxCell id="TeH9KYR89CR4eXnHReJw-40" value="Amazon GameLift" style="sketch=0;outlineConnect=0;fontColor=#232F3E;gradientColor=none;strokeColor=#ffffff;fillColor=#232F3E;dashed=0;verticalLabelPosition=middle;verticalAlign=bottom;align=center;html=1;whiteSpace=wrap;fontSize=10;fontStyle=1;spacing=3;shape=mxgraph.aws4.productIcon;prIcon=mxgraph.aws4.gamelift;" vertex="1" parent="1">
          <mxGeometry x="950" y="250" width="170" height="90" as="geometry" />
        </mxCell>
        <mxCell id="TeH9KYR89CR4eXnHReJw-41" value="" style="rounded=0;whiteSpace=wrap;html=1;fillColor=light-dark(#6A00FF,#330066);fontColor=#ffffff;strokeColor=#3700CC;movable=0;resizable=0;rotatable=0;deletable=0;editable=0;locked=1;connectable=0;" vertex="1" parent="1">
          <mxGeometry x="30" y="-660" width="1110" height="530" as="geometry" />
        </mxCell>
        <mxCell id="TeH9KYR89CR4eXnHReJw-42" value="" style="rounded=1;whiteSpace=wrap;html=1;fillColor=light-dark(#000000,#FFFFFF);" vertex="1" parent="1">
          <mxGeometry x="410" y="-570" width="330" height="320" as="geometry" />
        </mxCell>
        <mxCell id="TeH9KYR89CR4eXnHReJw-43" value="Login" style="rounded=1;whiteSpace=wrap;html=1;" vertex="1" parent="1">
          <mxGeometry x="430" y="-550" width="120" height="40" as="geometry" />
        </mxCell>
        <mxCell id="TeH9KYR89CR4eXnHReJw-44" value="Enter your email" style="rounded=1;whiteSpace=wrap;html=1;" vertex="1" parent="1">
          <mxGeometry x="440" y="-470" width="260" height="40" as="geometry" />
        </mxCell>
        <mxCell id="TeH9KYR89CR4eXnHReJw-45" value="Enter your password" style="rounded=1;whiteSpace=wrap;html=1;" vertex="1" parent="1">
          <mxGeometry x="445" y="-370" width="260" height="40" as="geometry" />
        </mxCell>
        <mxCell id="TeH9KYR89CR4eXnHReJw-46" value="" style="rounded=0;whiteSpace=wrap;html=1;fillColor=light-dark(#6A00FF,#330066);fontColor=#ffffff;strokeColor=#3700CC;movable=0;resizable=0;rotatable=0;deletable=0;editable=0;locked=1;connectable=0;" vertex="1" parent="1">
          <mxGeometry x="30" y="430" width="1110" height="530" as="geometry" />
        </mxCell>
        <mxCell id="TeH9KYR89CR4eXnHReJw-47" value="" style="points=[];aspect=fixed;html=1;align=center;shadow=0;dashed=0;fillColor=#FF6A00;strokeColor=none;shape=mxgraph.alibaba_cloud.eprofile;" vertex="1" parent="1">
          <mxGeometry x="80" y="550" width="197.15" height="170" as="geometry" />
        </mxCell>
        <mxCell id="TeH9KYR89CR4eXnHReJw-48" value="NAME" style="rounded=0;whiteSpace=wrap;html=1;" vertex="1" parent="1">
          <mxGeometry x="60" y="790" width="260" height="60" as="geometry" />
        </mxCell>
        <mxCell id="TeH9KYR89CR4eXnHReJw-49" value="rANK" style="rounded=0;whiteSpace=wrap;html=1;" vertex="1" parent="1">
          <mxGeometry x="450" y="510" width="480" height="80" as="geometry" />
        </mxCell>
        <mxCell id="TeH9KYR89CR4eXnHReJw-50" value="bIO" style="rounded=0;whiteSpace=wrap;html=1;" vertex="1" parent="1">
          <mxGeometry x="450" y="640" width="480" height="80" as="geometry" />
        </mxCell>
        <mxCell id="TeH9KYR89CR4eXnHReJw-51" value="" style="rounded=0;whiteSpace=wrap;html=1;fontStyle=1" vertex="1" parent="1">
          <mxGeometry x="450" y="780" width="480" height="80" as="geometry" />
        </mxCell>
      </root>
    </mxGraphModel>
  </diagram>
</mxfile>
